<svg width="50" height="50" viewBox="0 0 50 50" fill="none" xmlns="http://www.w3.org/2000/svg">
<rect width="50" height="50" rx="4" fill="black"/>
<path d="M24.3801 35H16.5449V14.6364H24.3006C26.3953 14.6364 28.205 15.044 29.7296 15.8594C31.2608 16.6681 32.4408 17.8348 33.2694 19.3594C34.1046 20.8774 34.5222 22.697 34.5222 24.8182C34.5222 26.9394 34.1079 28.7623 33.2793 30.2869C32.4507 31.8049 31.2774 32.9716 29.7594 33.7869C28.2414 34.5956 26.4483 35 24.3801 35ZM22.0733 30.3068H24.1813C25.1889 30.3068 26.0473 30.1444 26.7566 29.8196C27.4725 29.4948 28.016 28.9347 28.3873 28.1392C28.7651 27.3437 28.954 26.2367 28.954 24.8182C28.954 23.3996 28.7618 22.2926 28.3773 21.4972C27.9995 20.7017 27.4426 20.1416 26.7069 19.8168C25.9777 19.4919 25.0828 19.3295 24.0222 19.3295H22.0733V30.3068Z" fill="white"/>
<path d="M21 18.5H30V31.5H21V18.5Z" fill="white"/>
</svg>
